<svg width="1021" height="66" viewBox="0 0 1021 66" fill="none" xmlns="http://www.w3.org/2000/svg">
<rect y="10" width="25" height="55" fill="#018B38"/>
<path d="M39.2529 15.2344L55.5225 55.8398L71.792 15.2344H80.3027V65H73.7402V45.6201L74.3555 24.7021L58.0176 65H52.9932L36.6895 24.8047L37.3389 45.6201V65H30.7764V15.2344H39.2529ZM119.985 52.0117H99.1357L94.4531 65H87.6855L106.689 15.2344H112.432L131.47 65H124.736L119.985 52.0117ZM101.118 46.6113H118.037L109.561 23.335L101.118 46.6113ZM145.21 65H138.647V15.2344H145.21V65ZM171.904 42.8174C166.276 41.1995 162.174 39.2171 159.6 36.8701C157.048 34.5003 155.771 31.5837 155.771 28.1201C155.771 24.2008 157.332 20.9652 160.454 18.4131C163.599 15.8382 167.677 14.5508 172.69 14.5508C176.108 14.5508 179.15 15.2116 181.816 16.5332C184.505 17.8548 186.579 19.6777 188.037 22.002C189.518 24.3262 190.259 26.8669 190.259 29.624H183.662C183.662 26.6162 182.705 24.2578 180.791 22.5488C178.877 20.8171 176.177 19.9512 172.69 19.9512C169.455 19.9512 166.925 20.6689 165.103 22.1045C163.302 23.5173 162.402 25.4883 162.402 28.0176C162.402 30.0456 163.257 31.766 164.966 33.1787C166.698 34.5687 169.626 35.8447 173.75 37.0068C177.897 38.1689 181.133 39.4564 183.457 40.8691C185.804 42.2591 187.536 43.8883 188.652 45.7568C189.792 47.6253 190.361 49.8242 190.361 52.3535C190.361 56.3867 188.789 59.6224 185.645 62.0605C182.5 64.4759 178.296 65.6836 173.032 65.6836C169.614 65.6836 166.424 65.0342 163.462 63.7354C160.5 62.4137 158.21 60.6136 156.592 58.335C154.997 56.0563 154.199 53.4701 154.199 50.5762H160.796C160.796 53.584 161.901 55.9652 164.111 57.7197C166.344 59.4515 169.318 60.3174 173.032 60.3174C176.496 60.3174 179.15 59.611 180.996 58.1982C182.842 56.7855 183.765 54.86 183.765 52.4219C183.765 49.9837 182.91 48.1038 181.201 46.7822C179.492 45.4378 176.393 44.1162 171.904 42.8174ZM222.729 45.5176V65H216.167V15.2344H234.521C239.967 15.2344 244.229 16.6243 247.305 19.4043C250.404 22.1842 251.953 25.8643 251.953 30.4443C251.953 35.2751 250.438 39.0007 247.407 41.6211C244.399 44.2188 240.081 45.5176 234.453 45.5176H222.729ZM222.729 40.1514H234.521C238.031 40.1514 240.719 39.3311 242.588 37.6904C244.456 36.027 245.391 33.6344 245.391 30.5127C245.391 27.5505 244.456 25.1807 242.588 23.4033C240.719 21.626 238.156 20.7031 234.897 20.6348H222.729V40.1514ZM298.608 41.7236C298.608 46.5999 297.788 50.861 296.147 54.5068C294.507 58.1299 292.183 60.8984 289.175 62.8125C286.167 64.7266 282.658 65.6836 278.647 65.6836C274.728 65.6836 271.253 64.7266 268.223 62.8125C265.192 60.8757 262.834 58.1299 261.147 54.5752C259.484 50.9977 258.63 46.862 258.584 42.168V38.5791C258.584 33.7939 259.416 29.5671 261.079 25.8984C262.743 22.2298 265.09 19.4271 268.12 17.4902C271.174 15.5306 274.66 14.5508 278.579 14.5508C282.567 14.5508 286.076 15.5192 289.106 17.4561C292.16 19.3701 294.507 22.1615 296.147 25.8301C297.788 29.4759 298.608 33.7256 298.608 38.5791V41.7236ZM292.08 38.5107C292.08 32.609 290.895 28.0859 288.525 24.9414C286.156 21.7741 282.84 20.1904 278.579 20.1904C274.432 20.1904 271.162 21.7741 268.77 24.9414C266.4 28.0859 265.181 32.4609 265.112 38.0664V41.7236C265.112 47.443 266.309 51.9434 268.701 55.2246C271.117 58.4831 274.432 60.1123 278.647 60.1123C282.886 60.1123 286.167 58.5742 288.491 55.498C290.815 52.3991 292.012 47.9671 292.08 42.2021V38.5107ZM315.015 45.5176V65H308.452V15.2344H326.807C332.253 15.2344 336.514 16.6243 339.59 19.4043C342.689 22.1842 344.238 25.8643 344.238 30.4443C344.238 35.2751 342.723 39.0007 339.692 41.6211C336.685 44.2188 332.367 45.5176 326.738 45.5176H315.015ZM315.015 40.1514H326.807C330.316 40.1514 333.005 39.3311 334.873 37.6904C336.742 36.027 337.676 33.6344 337.676 30.5127C337.676 27.5505 336.742 25.1807 334.873 23.4033C333.005 21.626 330.441 20.7031 327.183 20.6348H315.015V40.1514ZM387.646 15.2344V49.0723C387.624 53.7663 386.143 57.6058 383.203 60.5908C380.286 63.5758 376.322 65.2507 371.309 65.6152L369.565 65.6836C364.119 65.6836 359.779 64.2139 356.543 61.2744C353.307 58.335 351.667 54.2904 351.621 49.1406V15.2344H358.115V48.9355C358.115 52.5358 359.106 55.3385 361.089 57.3438C363.071 59.3262 365.897 60.3174 369.565 60.3174C373.28 60.3174 376.117 59.3262 378.076 57.3438C380.059 55.3613 381.05 52.57 381.05 48.9697V15.2344H387.646ZM404.6 59.6338H428.184V65H398.003V15.2344H404.6V59.6338ZM463.833 52.0117H442.983L438.301 65H431.533L450.537 15.2344H456.279L475.317 65H468.584L463.833 52.0117ZM444.966 46.6113H461.885L453.408 23.335L444.966 46.6113ZM500.269 44.8682H488.579V65H481.982V15.2344H498.457C504.062 15.2344 508.369 16.5104 511.377 19.0625C514.408 21.6146 515.923 25.3288 515.923 30.2051C515.923 33.304 515.08 36.0042 513.394 38.3057C511.73 40.6071 509.406 42.3275 506.421 43.4668L518.11 64.5898V65H511.069L500.269 44.8682ZM488.579 39.502H498.662C501.921 39.502 504.507 38.6589 506.421 36.9727C508.358 35.2865 509.326 33.0306 509.326 30.2051C509.326 27.1289 508.403 24.7705 506.558 23.1299C504.735 21.4893 502.091 20.6576 498.628 20.6348H488.579V39.502ZM553.281 41.9971H531.714V59.6338H556.768V65H525.151V15.2344H556.426V20.6348H531.714V36.6309H553.281V41.9971ZM579.6 42.8174C573.971 41.1995 569.87 39.2171 567.295 36.8701C564.743 34.5003 563.467 31.5837 563.467 28.1201C563.467 24.2008 565.028 20.9652 568.149 18.4131C571.294 15.8382 575.373 14.5508 580.386 14.5508C583.804 14.5508 586.846 15.2116 589.512 16.5332C592.201 17.8548 594.274 19.6777 595.732 22.002C597.214 24.3262 597.954 26.8669 597.954 29.624H591.357C591.357 26.6162 590.4 24.2578 588.486 22.5488C586.572 20.8171 583.872 19.9512 580.386 19.9512C577.15 19.9512 574.621 20.6689 572.798 22.1045C570.998 23.5173 570.098 25.4883 570.098 28.0176C570.098 30.0456 570.952 31.766 572.661 33.1787C574.393 34.5687 577.321 35.8447 581.445 37.0068C585.592 38.1689 588.828 39.4564 591.152 40.8691C593.499 42.2591 595.231 43.8883 596.348 45.7568C597.487 47.6253 598.057 49.8242 598.057 52.3535C598.057 56.3867 596.484 59.6224 593.34 62.0605C590.195 64.4759 585.991 65.6836 580.728 65.6836C577.31 65.6836 574.119 65.0342 571.157 63.7354C568.195 62.4137 565.905 60.6136 564.287 58.335C562.692 56.0563 561.895 53.4701 561.895 50.5762H568.491C568.491 53.584 569.596 55.9652 571.807 57.7197C574.04 59.4515 577.013 60.3174 580.728 60.3174C584.191 60.3174 586.846 59.611 588.691 58.1982C590.537 56.7855 591.46 54.86 591.46 52.4219C591.46 49.9837 590.605 48.1038 588.896 46.7822C587.188 45.4378 584.089 44.1162 579.6 42.8174ZM623.862 65V15.2344H637.91C642.24 15.2344 646.068 16.1914 649.395 18.1055C652.721 20.0195 655.285 22.7425 657.085 26.2744C658.908 29.8063 659.831 33.8623 659.854 38.4424V41.6211C659.854 46.3151 658.942 50.4281 657.119 53.96C655.319 57.4919 652.733 60.2035 649.36 62.0947C646.011 63.986 642.103 64.9544 637.637 65H623.862ZM630.425 20.6348V59.6338H637.329C642.388 59.6338 646.318 58.0615 649.121 54.917C651.947 51.7725 653.359 47.2949 653.359 41.4844V38.5791C653.359 32.9281 652.026 28.5417 649.36 25.4199C646.717 22.2754 642.957 20.6803 638.081 20.6348H630.425ZM696.528 52.0117H675.679L670.996 65H664.229L683.232 15.2344H688.975L708.013 65H701.279L696.528 52.0117ZM677.661 46.6113H694.58L686.104 23.335L677.661 46.6113ZM746.738 42.8174C741.11 41.1995 737.008 39.2171 734.434 36.8701C731.882 34.5003 730.605 31.5837 730.605 28.1201C730.605 24.2008 732.166 20.9652 735.288 18.4131C738.433 15.8382 742.511 14.5508 747.524 14.5508C750.942 14.5508 753.984 15.2116 756.65 16.5332C759.339 17.8548 761.413 19.6777 762.871 22.002C764.352 24.3262 765.093 26.8669 765.093 29.624H758.496C758.496 26.6162 757.539 24.2578 755.625 22.5488C753.711 20.8171 751.011 19.9512 747.524 19.9512C744.289 19.9512 741.759 20.6689 739.937 22.1045C738.136 23.5173 737.236 25.4883 737.236 28.0176C737.236 30.0456 738.091 31.766 739.8 33.1787C741.532 34.5687 744.46 35.8447 748.584 37.0068C752.731 38.1689 755.967 39.4564 758.291 40.8691C760.638 42.2591 762.37 43.8883 763.486 45.7568C764.626 47.6253 765.195 49.8242 765.195 52.3535C765.195 56.3867 763.623 59.6224 760.479 62.0605C757.334 64.4759 753.13 65.6836 747.866 65.6836C744.448 65.6836 741.258 65.0342 738.296 63.7354C735.334 62.4137 733.044 60.6136 731.426 58.335C729.831 56.0563 729.033 53.4701 729.033 50.5762H735.63C735.63 53.584 736.735 55.9652 738.945 57.7197C741.178 59.4515 744.152 60.3174 747.866 60.3174C751.33 60.3174 753.984 59.611 755.83 58.1982C757.676 56.7855 758.599 54.86 758.599 52.4219C758.599 49.9837 757.744 48.1038 756.035 46.7822C754.326 45.4378 751.227 44.1162 746.738 42.8174ZM801.768 41.9971H780.2V59.6338H805.254V65H773.638V15.2344H804.912V20.6348H780.2V36.6309H801.768V41.9971ZM821.899 15.2344L838.169 55.8398L854.438 15.2344H862.949V65H856.387V45.6201L857.002 24.7021L840.664 65H835.64L819.336 24.8047L819.985 45.6201V65H813.423V15.2344H821.899ZM902.632 52.0117H881.782L877.1 65H870.332L889.336 15.2344H895.078L914.116 65H907.383L902.632 52.0117ZM883.765 46.6113H900.684L892.207 23.335L883.765 46.6113ZM959.062 65H952.466L927.412 26.6504V65H920.815V15.2344H927.412L952.534 53.7549V15.2344H959.062V65ZM998.813 52.0117H977.964L973.281 65H966.514L985.518 15.2344H991.26L1010.3 65H1003.56L998.813 52.0117ZM979.946 46.6113H996.865L988.389 23.335L979.946 46.6113Z" fill="black"/>
</svg>
